<mxfile host="app.diagrams.net" modified="2024-02-08T20:39:40.857Z" agent="Mozilla/5.0 (X11; Linux x86_64; rv:109.0) Gecko/20100101 Firefox/117.0" etag="FgbCI1_UNABzFZU6XIS4" version="23.1.2" type="device">
  <diagram name="Page-1" id="d1AsjFDHPX4hofMkr_d-">
    <mxGraphModel dx="798" dy="501" grid="1" gridSize="10" guides="1" tooltips="1" connect="1" arrows="1" fold="1" page="1" pageScale="1" pageWidth="850" pageHeight="1100" math="0" shadow="0">
      <root>
        <mxCell id="0" />
        <mxCell id="1" parent="0" />
        <mxCell id="iSFURS1cX5LaSOAn9sqE-9" value="" style="rounded=0;whiteSpace=wrap;html=1;" vertex="1" parent="1">
          <mxGeometry x="270" y="320" width="360" height="280" as="geometry" />
        </mxCell>
        <mxCell id="iSFURS1cX5LaSOAn9sqE-1" value="&lt;div&gt;image store&lt;/div&gt;&lt;div&gt;(file system)&lt;br&gt;&lt;/div&gt;" style="rounded=0;whiteSpace=wrap;html=1;" vertex="1" parent="1">
          <mxGeometry x="400" y="441" width="80" height="60" as="geometry" />
        </mxCell>
        <mxCell id="iSFURS1cX5LaSOAn9sqE-2" value="&lt;div&gt;pull API&lt;br&gt;&lt;/div&gt;&lt;div&gt;handlers&lt;/div&gt;" style="rounded=0;whiteSpace=wrap;html=1;verticalAlign=middle;" vertex="1" parent="1">
          <mxGeometry x="400" y="350" width="80" height="60" as="geometry" />
        </mxCell>
        <mxCell id="iSFURS1cX5LaSOAn9sqE-3" value="&lt;div&gt;Google&lt;/div&gt;&lt;div&gt;crane&lt;/div&gt;" style="rounded=0;whiteSpace=wrap;html=1;verticalAlign=middle;" vertex="1" parent="1">
          <mxGeometry x="520" y="350" width="80" height="60" as="geometry" />
        </mxCell>
        <mxCell id="iSFURS1cX5LaSOAn9sqE-6" value="" style="rounded=0;whiteSpace=wrap;html=1;" vertex="1" parent="1">
          <mxGeometry x="665" y="369" width="80" height="60" as="geometry" />
        </mxCell>
        <mxCell id="iSFURS1cX5LaSOAn9sqE-5" value="" style="rounded=0;whiteSpace=wrap;html=1;" vertex="1" parent="1">
          <mxGeometry x="655" y="359" width="80" height="60" as="geometry" />
        </mxCell>
        <mxCell id="iSFURS1cX5LaSOAn9sqE-4" value="&lt;div&gt;remote&lt;/div&gt;&lt;div&gt;registry&lt;br&gt;&lt;/div&gt;" style="rounded=0;whiteSpace=wrap;html=1;verticalAlign=middle;" vertex="1" parent="1">
          <mxGeometry x="645" y="349" width="80" height="60" as="geometry" />
        </mxCell>
        <mxCell id="iSFURS1cX5LaSOAn9sqE-7" value="tarball loader" style="rounded=0;whiteSpace=wrap;html=1;" vertex="1" parent="1">
          <mxGeometry x="400" y="526" width="80" height="60" as="geometry" />
        </mxCell>
        <mxCell id="iSFURS1cX5LaSOAn9sqE-8" value="echo" style="rounded=0;whiteSpace=wrap;html=1;verticalAlign=middle;" vertex="1" parent="1">
          <mxGeometry x="290" y="350" width="80" height="60" as="geometry" />
        </mxCell>
        <mxCell id="iSFURS1cX5LaSOAn9sqE-10" value="&lt;div&gt;containerd&lt;br&gt;&lt;/div&gt;" style="shape=umlActor;verticalLabelPosition=bottom;verticalAlign=top;html=1;outlineConnect=0;" vertex="1" parent="1">
          <mxGeometry x="170" y="376" width="30" height="60" as="geometry" />
        </mxCell>
        <mxCell id="iSFURS1cX5LaSOAn9sqE-11" value="" style="endArrow=classic;html=1;rounded=0;entryX=0;entryY=0.5;entryDx=0;entryDy=0;" edge="1" parent="1" source="iSFURS1cX5LaSOAn9sqE-10" target="iSFURS1cX5LaSOAn9sqE-8">
          <mxGeometry width="50" height="50" relative="1" as="geometry">
            <mxPoint x="200" y="450" as="sourcePoint" />
            <mxPoint x="250" y="400" as="targetPoint" />
          </mxGeometry>
        </mxCell>
        <mxCell id="iSFURS1cX5LaSOAn9sqE-12" value="" style="endArrow=classic;html=1;rounded=0;exitX=1;exitY=0.5;exitDx=0;exitDy=0;entryX=0;entryY=0.5;entryDx=0;entryDy=0;" edge="1" parent="1" source="iSFURS1cX5LaSOAn9sqE-8" target="iSFURS1cX5LaSOAn9sqE-2">
          <mxGeometry width="50" height="50" relative="1" as="geometry">
            <mxPoint x="440" y="530" as="sourcePoint" />
            <mxPoint x="490" y="480" as="targetPoint" />
          </mxGeometry>
        </mxCell>
        <mxCell id="iSFURS1cX5LaSOAn9sqE-13" value="" style="endArrow=classic;html=1;rounded=0;entryX=0;entryY=0.5;entryDx=0;entryDy=0;" edge="1" parent="1" target="iSFURS1cX5LaSOAn9sqE-3">
          <mxGeometry width="50" height="50" relative="1" as="geometry">
            <mxPoint x="480" y="380" as="sourcePoint" />
            <mxPoint x="520" y="379.83" as="targetPoint" />
          </mxGeometry>
        </mxCell>
        <mxCell id="iSFURS1cX5LaSOAn9sqE-14" value="" style="endArrow=classic;html=1;rounded=0;entryX=0;entryY=0.5;entryDx=0;entryDy=0;exitX=1;exitY=0.5;exitDx=0;exitDy=0;" edge="1" parent="1" source="iSFURS1cX5LaSOAn9sqE-3" target="iSFURS1cX5LaSOAn9sqE-4">
          <mxGeometry width="50" height="50" relative="1" as="geometry">
            <mxPoint x="530" y="510" as="sourcePoint" />
            <mxPoint x="580" y="460" as="targetPoint" />
          </mxGeometry>
        </mxCell>
        <mxCell id="iSFURS1cX5LaSOAn9sqE-16" value="" style="endArrow=classic;html=1;rounded=0;exitX=0.5;exitY=1;exitDx=0;exitDy=0;entryX=0.5;entryY=0;entryDx=0;entryDy=0;" edge="1" parent="1" source="iSFURS1cX5LaSOAn9sqE-2" target="iSFURS1cX5LaSOAn9sqE-1">
          <mxGeometry width="50" height="50" relative="1" as="geometry">
            <mxPoint x="430" y="490" as="sourcePoint" />
            <mxPoint x="480" y="440" as="targetPoint" />
          </mxGeometry>
        </mxCell>
        <mxCell id="iSFURS1cX5LaSOAn9sqE-17" value="" style="endArrow=classic;html=1;rounded=0;exitX=0.5;exitY=0;exitDx=0;exitDy=0;entryX=0.5;entryY=1;entryDx=0;entryDy=0;" edge="1" parent="1" source="iSFURS1cX5LaSOAn9sqE-7" target="iSFURS1cX5LaSOAn9sqE-1">
          <mxGeometry width="50" height="50" relative="1" as="geometry">
            <mxPoint x="430" y="490" as="sourcePoint" />
            <mxPoint x="480" y="440" as="targetPoint" />
          </mxGeometry>
        </mxCell>
        <mxCell id="iSFURS1cX5LaSOAn9sqE-18" value="&lt;div&gt;staging&lt;/div&gt;&lt;div&gt;(file system)&lt;br&gt;&lt;/div&gt;" style="rounded=0;whiteSpace=wrap;html=1;" vertex="1" parent="1">
          <mxGeometry x="290" y="527" width="80" height="60" as="geometry" />
        </mxCell>
        <mxCell id="iSFURS1cX5LaSOAn9sqE-19" value="sysadmin" style="shape=umlActor;verticalLabelPosition=bottom;verticalAlign=top;html=1;outlineConnect=0;" vertex="1" parent="1">
          <mxGeometry x="167" y="490" width="30" height="60" as="geometry" />
        </mxCell>
        <mxCell id="iSFURS1cX5LaSOAn9sqE-20" value="" style="endArrow=classic;html=1;rounded=0;entryX=0;entryY=0.5;entryDx=0;entryDy=0;" edge="1" parent="1" source="iSFURS1cX5LaSOAn9sqE-19" target="iSFURS1cX5LaSOAn9sqE-18">
          <mxGeometry width="50" height="50" relative="1" as="geometry">
            <mxPoint x="430" y="490" as="sourcePoint" />
            <mxPoint x="480" y="440" as="targetPoint" />
          </mxGeometry>
        </mxCell>
        <mxCell id="iSFURS1cX5LaSOAn9sqE-21" value="" style="endArrow=classic;html=1;rounded=0;entryX=1;entryY=0.5;entryDx=0;entryDy=0;exitX=0;exitY=0.5;exitDx=0;exitDy=0;" edge="1" parent="1" source="iSFURS1cX5LaSOAn9sqE-7" target="iSFURS1cX5LaSOAn9sqE-18">
          <mxGeometry width="50" height="50" relative="1" as="geometry">
            <mxPoint x="430" y="490" as="sourcePoint" />
            <mxPoint x="480" y="440" as="targetPoint" />
          </mxGeometry>
        </mxCell>
        <mxCell id="iSFURS1cX5LaSOAn9sqE-23" value="1" style="text;strokeColor=#23445d;align=center;fillColor=#bac8d3;html=1;verticalAlign=middle;whiteSpace=wrap;rounded=1;glass=0;fontStyle=1;fontSize=10;arcSize=0;" vertex="1" parent="1">
          <mxGeometry x="212" y="404" width="16" height="13" as="geometry" />
        </mxCell>
        <mxCell id="iSFURS1cX5LaSOAn9sqE-29" value="2" style="text;strokeColor=#23445d;align=center;fillColor=#bac8d3;html=1;verticalAlign=middle;whiteSpace=wrap;rounded=1;glass=0;fontStyle=1;fontSize=10;arcSize=0;" vertex="1" parent="1">
          <mxGeometry x="363" y="361.5" width="16" height="13" as="geometry" />
        </mxCell>
        <mxCell id="iSFURS1cX5LaSOAn9sqE-30" value="4" style="text;strokeColor=#23445d;align=center;fillColor=#bac8d3;html=1;verticalAlign=middle;whiteSpace=wrap;rounded=1;glass=0;fontStyle=1;fontSize=10;arcSize=0;" vertex="1" parent="1">
          <mxGeometry x="469" y="362.5" width="16" height="13" as="geometry" />
        </mxCell>
        <mxCell id="iSFURS1cX5LaSOAn9sqE-31" value="5" style="text;strokeColor=#23445d;align=center;fillColor=#bac8d3;html=1;verticalAlign=middle;whiteSpace=wrap;rounded=1;glass=0;fontStyle=1;fontSize=10;arcSize=0;" vertex="1" parent="1">
          <mxGeometry x="591" y="384.5" width="16" height="13" as="geometry" />
        </mxCell>
        <mxCell id="iSFURS1cX5LaSOAn9sqE-33" value="3" style="text;strokeColor=#23445d;align=center;fillColor=#bac8d3;html=1;verticalAlign=middle;whiteSpace=wrap;rounded=1;glass=0;fontStyle=1;fontSize=10;arcSize=0;" vertex="1" parent="1">
          <mxGeometry x="419" y="404" width="16" height="13" as="geometry" />
        </mxCell>
        <mxCell id="iSFURS1cX5LaSOAn9sqE-35" value="" style="shape=image;imageAspect=0;aspect=fixed;verticalLabelPosition=bottom;verticalAlign=top;image=data:image/png,iVBORw0KGgoAAAANSUhEUgAAAgAAAAIACAMAAADDpiTIAAAAA3NCSVQICAjb4U/gAAAACXBIWXMAAAuUAAALlAF37bb0AAAAGXRFWHRTb2Z0d2FyZQB3d3cuaW5rc2NhcGUub3Jnm+48GgAAAwBQTFRF////AAAAAAAAAAAAAAAAAAAAAAAAAAAAAAAAAAAAAAAAAAAAAAAAAAAAAAAAAAAAAAAAAAAAAAAAAAAAAAAAAAAAAAAAAAAAAAAAAAAAAAAAAAAAAAAAAAAAAAAAAAAAAAAAAAAAAAAAAAAAAAAAAAAAAAAAAAAAAAAAAAAAAAAAAAAAAAAAAAAAAAAAAAAAAAAAAAAAAAAAAAAAAAAAAAAAAAAAAAAAAAAAAAAAAAAAAAAAAAAAAAAAAAAAAAAAAAAAAAAAAAAAAAAAAAAAAAAAAAAAAAAAAAAAAAAAAAAAAAAAAAAAAAAAAAAAAAAAAAAAAAAAAAAAAAAAAAAAAAAAAAAAAAAAAAAAAAAAAAAAAAAAAAAAAAAAAAAAAAAAAAAAAAAAAAAAAAAAAAAAAAAAAAAAAAAAAAAAAAAAAAAAAAAAAAAAAAAAAAAAAAAAAAAAAAAAAAAAAAAAAAAAAAAAAAAAAAAAAAAAAAAAAAAAAAAAAAAAAAAAAAAAAAAAAAAAAAAAAAAAAAAAAAAAAAAAAAAAAAAAAAAAAAAAAAAAAAAAAAAAAAAAAAAAAAAAAAAAAAAAAAAAAAAAAAAAAAAAAAAAAAAAAAAAAAAAAAAAAAAAAAAAAAAAAAAAAAAAAAAAAAAAAAAAAAAAAAAAAAAAAAAAAAAAAAAAAAAAAAAAAAAAAAAAAAAAAAAAAAAAAAAAAAAAAAAAAAAAAAAAAAAAAAAAAAAAAAAAAAAAAAAAAAAAAAAAAAAAAAAAAAAAAAAAAAAAAAAAAAAAAAAAAAAAAAAAAAAAAAAAAAAAAAAAAAAAAAAAAAAAAAAAAAAAAAAAAAAAAAAAAAAAAAAAAAAAAAAAAAAAAAAAAAAAAAAAAAAAAAAAAAAAAAAAAAAAAAAAAAAAAAAAAAAAAAAAAAAAAAAAAAAAAAAAAAAAAAAAAAAAAAAAAAAAAAAAAAAAAAAAAAAAAAAAAAAAAAAAAAAAAAAAAAAAAAAAAAAAAAAAAAAAAAAAAAAAAAAAAAAACyO34QAAAP90Uk5TAAECAwQFBgcICQoLDA0ODxAREhMUFRYXGBkaGxwdHh8gISIjJCUmJygpKissLS4vMDEyMzQ1Njc4OTo7PD0+P0BBQkNERUZHSElKS0xNTk9QUVJTVFVWV1hZWltcXV5fYGFiY2RlZmdoaWprbG1ub3BxcnN0dXZ3eHl6e3x9fn+AgYKDhIWGh4iJiouMjY6PkJGSk5SVlpeYmZqbnJ2en6ChoqOkpaanqKmqq6ytrq+wsbKztLW2t7i5uru8vb6/wMHCw8TFxsfIycrLzM3Oz9DR0tPU1dbX2Nna29zd3t/g4eLj5OXm5+jp6uvs7e7v8PHy8/T19vf4+fr7/P3+6wjZNQAAF4BJREFUGBntwQmgjXXeB/DvuftiX7NnSVkSCU3ZK4OUbCWjvZBGibRJKrQJ1bRpoUQqCkMzWmwtkiUija2Q7FzLve527jnft3nf3plyLvee5/yf5/n/n+f3+QBCCCGEEEIIIYQQQgghhBBCCCGEEEIIIYQQQgghhBBCCCGEEEIIIYQQOkmsdVG3q28YNGzkuIkvv/X+/EXL123euu7LhbPffPGpUXffdu0VHVo0rFkuCcJjSje87MaRL/99zb4wiyM/Y9OCZ4d0OSsRwnA1u42ctmhTJq0p+OmTl4Z3b5QKYZ60lrf+bdkRqhD+Zenr9/dpVgLCDGdeOWrW5hBVC617oW91CK0lt3tk6THaaMfbAxsFIHSUePFDi3LogIz5912cDKGT+Fb3f5xFB+V+8cTlZSF0ENf8no+O0wXhDS/3TIVwVWLnNw7TRVnv9kqFcElilykZdF3We73TIByX1HXqEWrixPt90iAclHT5m0eolROzrk6HcETSFdOOUkMnZl+dDmG3uk8fpLayZ1+TBmGf+Ks+DlNvGU/XhLBHtUd+oQEKZrWGUC7QaU4BTbHm+iQIlSqM2Eaj7BtdGUKVP83IpXHy3mwGoUL7xTTU573iIWJ06ec02I57ykDEoPNyGi7rxbMgLOq2kh4QfKkSRPQCV62hR2Q+nA4RnUDv7+ghewbEQ0Shx/f0mB+uhCiuRp/Rg5a1hCiOss8H6U3v1YUoSvygQ/Ss/OcqQJxWu3X0tGMPpEKcUs336Hm/3BQHUajU0dn0g++aQxSiz076RHBcEsRJan5KH9nQHOIPbj5GXwmOTYL4jyoL6DsbmkP8pl8GfSg4NgniVxU/oE+tPx8CvQ7Qt4JjkuBz5d6hr60/H752+R76XHBMEnyrxBQKrj8fPnX2RopfBe+GL/U+TvF/3k6F7yQ8Q/Efa2rCZyovpfidA+3hKxfvpviD4F3wkbvyKU72Vgp8In0mRSFW14AvnL2RolAH2sEHeh2nOIXgEHje/RSnMTUFnhb3N4rTWlkdHpY8m6II+9vAs8osoyhS/s3wqOrfUxRD+E54UqNdFMXzADyozRGK4hoLz+mZQ1F8k+Axd4QoovFqHLzkcYooTY+Hd7xAEbUPkuAVz1JY8I9UeMN4auToxk/fevyeO27u16NL+1bn1a9RrX6z1p17XX/7PaPHv/TW7E8251EfS0rACx6nDnYsmDj82nb10lCEuBrtbx77zjcHqYOvy8B8j9JlGcteGHhRKUSpZNOe90xeV0B3fVsBphtJF2X8/d7O1RCDEpeM+ucRumhjFZjtXrpl3/t/bRKAAoGGt07ZFKZLttaEye6mK3ZMu7U+lCp/+bhvwnTDlgow11/pgpUPnANbVLvjsyCdtzwVphpEpxUsHlIdNip7/ZxsOu3DOJjpljAdlTPvxvKwXVqPaRl01nMw0uUFdFB4Sb90OCTh0hf30UnDYKDzMumcfU+eBUcl9v2Czgn3gXGq7qJTQv/smQjnNXkli07JbQ3DpK+hQ35+pCZcUvrOTXTI4XNglLi5dMbq3nFw0yUfFtAR2yvDJBPoiCWd4LrqY/bRCavTYY6BdEB4bitoIemOvXTAgniYolOQtgtOawRtpN13mPabDEM0Oka75b9UC1op/VgmbfcgjFB5B+32YX1op+KEHNqtPwyQuoI2W9EaWqo2OUh75beH/mbSXj9dA23VnR6irfZWgu4G0VYZw5Kgs8bLaKuPA9DbeTm0UXBiWWgucGsG7XQftFZiM2307fkwQOV3aaPghdDZDNon574EmKHrDtpnexno61baZ+lZMEb6xALaZha01Tibdjk6IACTNP+WthkETaX/QLvMrQrDxN9zgjbJORd6epM2OdYXBqq9mDb5IQ06uoE2WVUHRop7NER7vA4NNciiPZ5NgqkuO0B79IV2UjfQFhndYbCqn9MWx+pCN5Npi69qwmjxT4Rph1WJ0MsltEP4yQSYrush2mECtJK6jTbI6AwPqPE1bRDuCp2Mpw221IcnJE6gDQ5WhD6aF1C9JeXgFVcdp3pvQhsJ66je64nwjmb7qFy4DXTxAJULjYCn1NlK5TYkQA/1c6haVnd4TKXVVG44tBBYRtV2NYXnlPiEqmVWgw4GUrWNVeBBiTOo2vvQQNWjVGxtBXhSYCJV6wT3zaViK8vCq0aEqdaWZLitDxX7shS867og1RoFl5XcS7UWp8PLOmdTqezacNcYqrUwFd7WJZ9KLYCrqp2gUvOS4XV9QlTqKrhpCpX6MBHed3OYKu1Mg3uahKjS4mT4wVAq9QTc8zFV+rYU/OFhqpR/DtzyZ6q0tRL8YgJVWgSXxH1HhfbUhn+8RpV6wh03U6EjTeAjce9SoXUBuCFtN9XJbg1fSVxAhbrDDaOoTvAK+EzKl1RnDVxQOZPq3A7fOWM31ekG571MdV6HD12YR2VWwnFlD1GZFcnwowFUpzMcl9p/cZhK7K0Gf3qNyiyHG+qM2cXY5beGTyWvoDKXwRVxnWflMUa3w7eq7aMqX8AtFYauZyxeh4+1yacqHeCeFi8fpVUrkuFnf6UqS+Cm1P5LwrTicHX421tUpQ3cVWfsLkbvavhcyhoq8hncFtdlVh6jMx2+Vy+bilwE91UYup5R2Fka4m4qshBaaPHyURZTuAME4r6kIq2gh9T+S8IsjmcgflU/m2osgDbqjt3FIq1Phvi34VTkbOgjrsusPJ5WXhOI/xW3nGo8Ba1UGLqBpzEC4jdn51CJvQnQTItXjvIUvo2H+H8jqEZ3aCf1uiVhFiLcCuI/4ldQib9DR3XH/sIIr0L8ToNcqhCsAi3Fd5mdxz84WA7i9+6jEvdDVxWGbuDv3AzxB/HrqcIWaKzFK8f4m68CEH/UmUq0hc5Sr1sS5q8KzoM42WdU4S1oru7YX8hJEBHOD1OBE6Wgu/guU0tCRJpOFQZAGKpWLhX4BsJUz1CFxhCGKptBBSZBmGo4FTiUBGGo5B1UoA+Eqf5CBRZCmCqwhrELVYcw1RVUYCCEqQKbGbt5EMa6nbHLTIIwVdphxu4SCGONY+yegTBW1XzGbCOEuaYxdjUhjNWUsRsIYa7FjNlcCHN1Y8wykyCMFdjMmHWEMNcgxmw8hLnSjjBW30MY7A3GrCaEuS5jzAZCmCt+P2M1F8JgLzJWmUkQ5mrDmHWEMFdgF2M1HsJgExirFRAGa8FYnYiHMNg2xqoBhMHGMVb9IAx2LmM1HsJkGxmjTyFMNpoxOgRhstaMVQ0IgyVlM0ZXQphsEWP0MITJRjFGcyBM1pYx2gFhsuQcxqgshMmWMEYdIEw2mjEaBmGydozR2xAmS8llbDZAGG0pY1OQAmGyRxmjFnBKqTbda0Mo1oExGgAnlBo+a1uY5JElE5tDFEfL/bnFkccYBXNPI+M8qBB/72H+14d1IIrU9jh1sLMSYldpMf/gSDeIIvw5m3r4KgmxqvMzTxK+C+K02uZRF1MRozN3MtIQiNMouZ36aIGY1NzOwgyGOLXXqZHpiEX1H1mo8CCIU+lMneSdAeuqbuUphAdAnMIUauVRWHbGJp5S+BaIwq2iVtbAqko/8DTCN0EU6p/UykFYVPF7nlboBojCTKRWMmFN+e9YhFB/iEI0oVbWw5Kya1mkgn4QhfgHdfIqrCizmsVQ0BciUtNcaqQZLCj1DYul4GqISEOoj5mwoORyFlOwF0SkOdTF6lREr8QXLLZgD4gIpVZSD5vOQPTSljIK+d0hIpRZQx1sqYLopS5iVPKvgIhQbh3dt7UaopfyCaOUdzlEhArr6bZt1RG95H8yarldICJU3Eh3/VQD0UtaQAty/wwRofK/6KbttRC9xHm0JOcyiAhVttA9O89E9BI+oEXZl0BEqLaNbvm5NqIX/z4ty+4AEaHGT3THrrqIXvw7jMGJdhARau2kG3bXQ/Ti3mZMstpCRKizi87bUx/RC0xljDJbQ0Sot5tO23s2ohd4jTE7fhFEhPp76ax9DRC9wCtU4PiFEBEa7KeTDjSCBS9QiWMtISI0OkDnHGwMC56lIkdbQERocohOOdQEFjxDZY40h4jQLIPOONwUFjxJhTKaQURofoROyGgGC8ZQqcNNISK0PEb7HWkOC0ZTsUNNICL86TjtdrQFLBhJ5Q42hojQOov2OtYKFtxHGxxoBBGh3Qna6fiFsGA4bbG/AUSEjtm0T+ZFsOAu2mTvORARLsuhXbJaw4I7aJs99SEidMmlPbLawoKBYdpn91kQEbrl0Q4n2sOCW8K00y/1ICJclU/1sjvCghtDtNeuOhARegWpWs6lsKB/iHbbWRsiwjUFVCunEyzoW0D77agFEaFfiCrldoYFfQrohO01ISJcH6I6eV1hQY8gnfFjDYgIN4epSt4VsODKfDplW3WICAPCVCO/Oyy4PI/O2VoVIsJgKhHsAQv+nEsnba4CEeFOKhDsBQsuzaGzNp0BEWEYY1bQBxZ0yKbTfqgMEeFexqigLyxoe4LO21gJIsKDjElBP1hwcSbdsKEiRITRjEGoPyy48Djdsb4CRIQxtCx0AyxoeYxuWVceIsITtCh8EyxofoTu+bYsRITxtCR8KyxomkE3rSkLEeFZWhAeAAuaHKK7VpWBiPACo3c7LGh0gG77pjTEyQKvMFp3wIIG++i+FaUgThZ4ndG5ExbU30sdLC8JcbLAVEZjKCyou5t6+LIExMni3mbxDYcFqRuoi7kBiJPFz2Rx3QsrXqE+HoGIEP8+i+d+WNGTGskuBxEh4UMWx0hYEb+NOhkGESlxHov2MCzpS628D1GIpI9YlEdhzUJqZRVEYZIX8vTGwKLt1MoXEIVK+ZSn8zisyqRWZkAULnUJT+0pWLacWrkW4hTSP+epjId1d1EnvyRAnEqJr1i4iYhBYBE18gDEqZVcwcI8h5hUP0JtZJeHOI3SKxnpb4hR7xB1MQzitMqu5sleQMz6F1APUyGKkDaDf5A3GApcE6QOlidDFOmWn/lfn7eAEj0yc08jyNiFcov0U2WIYki+bfrGApJZy1+6DI7oy9itg1AotWXPs+PglOpUoDGEsXYydk9CGOsdxu7nAISpBlOB9hCmOo8KvAZhqrhjjN2RZAhTLaQCvSBM9RAVmANhqg5UIK8shKHSglRgAISpVlKBzyFMNZEqnAthqF5U4U0IQ51BFfKqQBhqG1V4AsJQb1GFjHQIM91CJYZAmKliAVX4KR7CTJ9Sid4QZrqNSqyAMFP5IJW4GMJMC6nEHAgz3UwlQg0gjFQ2n0rMgzDTR1SjLYSRbqAa30AYqUwe1bgawkjzqca2JAgT9acid0GYqFQu1ThUGsJEc6nIkxAm6kdFcmpAGKhEDhV5E8JEs6lI6AIIA11CVdYnQhjoO6ryKISBbqQq+edBmCd5H1VZkwBhnoepzIMQ5qmYQ1VyG0KY53Uq8008hHEaUZ17IMzzCZXJqQ+BhHEXwySdqc4XcRBPkRuHlocxAj9Qncfge53D/FXuOx0CMMQAqhPuCp+rcoC/2XpfZRgh9RDVyTgTvha3hP+V/0HnOBhgLBVakww/G80/2jGqOrRXJY8KvQYfax/iyQrmXxkPzU2jSjfBtyruZmF2j60NrTUJU6GcpvCpxGU8hfAnfRKhsbeo0o9l4E9v8DQOPF0f2qqeTZXmB+BHw1mEpX9JgabGUamH4EOXh1ikjOcaQ0ulDlCl8HXwncbHWSxf35QODQ2mUsHO8JmK21lcx14+H9pJ2ESlslrCV5K+ZDTWDCoFzXSnWgfPho/EvcsoZU35E/SyjGrtqArfCLxOCzbcWQ4auSBMtdaXgV9MojU509tBHzOo2Ocp8IdHad3mEZWgiVq5VGxOPPxgOGOSP6tTAFp4mqpNhg8MYMy2j6wKDZQ5RNVejoPXXRuiAgXzusXDdXdRuekJ8LZ+QSryy2O14LLErVRuXjK8bECI6oQW9kqEq7pTvUUl4F3DqNgbcNc7VO/rsvCq0VTsaDW4q9xeqvddZXjTeKo2AG67kjbYUhMeFHiFqi0JwHXTaIOf68NzkmZQtex6cF+Z3bTB/pbwmIpfULkR0EFX2iH3BnhKo5+o3Op4aGEKbfFsAryj63EqFzwPeii9i7ZYVB5ecXeI6o2DLjrRHj81gSckvkYb/CsZ2niV9sjqAw+otJQ2CF8MfZTcQZuMi4PpOu6hHV6ATi4J0ybzS8Fo8Y+FaIfNJaCVF2mXzS1gsGrLaIvcptBL+o+0S/CRBJiq60HaYzB00y5E26xuACMljg/THrOhnwdpn5yhAZin0UraZHsZaGgWbbS4JgyT8FAebZLfEjpK30AbHbsRRmm6lrYZDj3VzaCd5lSCMZLGBGmbBQFoqlMB7XTg+gDM0PJ72mdXeWhrBO21ohUMUGpCAe1T0AYam0l7hadVhebibttPO42EztLW0maZDyZDZ+3W0lYfx0FrZx6i3X7qCW3Vnk17/asMNNexgLZbdC60VOLxXNrrcD1obyjtV/BSNWgndehe2iy/PQwwjQ7Ie7UetJI2bB9tdytMkLKaTiiY2QTaSL9nP+03AWaosZ/OWHARtJB+7wE6YH4cDHHxCTpkaSe4rvKog3TC+pIwRqc8OmV1rzi46cLpeXTE/lowyFVBOmb76JpwScqNq+mQ3ItglL+E6JzQJ32T4bxaTx6iY/rDMAPoqIwXmsFRJa5bGKJzRsM4w+mwtUPKwSGJV7ybTSdNgIEeodNy3+tZErYLtH3lMJ31Coz0DJ2X/9nd9WGj5Msm7aTTpgVgpsl0xdbnOiXDDrUHzz9B582Oh6HiptMlWXNvqwalUjpN2kRXfJQEYyXMoXs2Tr39giSoUKXnM1/l0CWLU2Cw5I/pqryVL9zQMA7WJba4c+YOuujrEjBa2hd03fGlT/c5tySilNSo18i3V+XQXd+WgeFKraIeDq/5YMKQK84tiSLEVWrS6Zbx87cWUAMbK8B4pRdTK4fXfDB50riRQwf079m5TfMGtarWaXj+RR279rj2piHj3vhozZ4C6mNLFXhA0rsUlqytBE8ITKKwYFlpeMXwMEW05qfAO/rlUURnWgK85JJjFNF4NgBvabqHovhGwXPO3ERRTKHB8KDyyymKJf9aeFLqPIpiONEFHhU/maJIe1rBux6mKMI3VeFlN+VSnM5byfC2ZlspTqngbnheqVkUp5BxGfxgSB5FYb6vC3+4YDtFpDkl4Bdl5lKcJPxoAD4yLJ/i97J6wl8u/Jniv75rCL8pt4DiN+Fnk+E/gfuCFP+2rzP8qc0vFORHleBXFT+m7+UMgY8FBh6lv21oDH8743362fMp8L1uP9Ov9neFAEo8G6IvfVAZ4n9dsJb+s6MbxP9LGHGC/hIcnw7xO7UX0k++bgJxkn4H6BdHBgUgIpSbQn+YeQZEoTpsofdt6wRxKin3Hqa35Y1NgTiN0o9l0rvCM2pDFKHixBx61MKmEMVQfXKQHrSyA0Qx1ZsRosds7g0RhXPn0Uv2DEyAiE6rz+gVx0amQUSv49f0gqwJ5SGsuXI9Tbd/VDkIywJXfUaTbR2UAhGbc54/RkOt6BUHEbv0QetpnvD8thCqtHk3n0bJm9IQQqUqD++mMfY/WRVCtYTeS2iC4LyrEiFs0fDF49TcxnsqQ9in5B3fUl9HJ7eCsFvt4V+FqaHwor+kQjiiyuDPgtTLlkfOhHBQuRvn51IT4RUPNIRwXMlr3suk63L/MbAKhEtSrnzzMF2U8XbvEhCuSrj0pR/pih3PdUyA0EHlHs8sz6OTtk29pT6ETpIvHjFnPx0QWvv81VUgtFTvhskbwrRP7uePdykNobUynR9blEnlslZNHd46GcII8U163/fqoh0hqpCzdvr9V9QOQBgnqX6Xv076+8YcWnR8w7sP9agfD2G2QLW2N42dufJgPoslY+Nnbz819Jq29dIhvCWpXI0GLdp3u+aWux58/Pk33vto6ep/bft+1ecfz5055cVnxjx496Abel1UOwVCCCGEEEIIIYQQQgghhBBCCCGEEEIIIYQQQgghhBBCCCGEEEIIIYQQOvkfG8URzZBYfLIAAAAASUVORK5CYII=;" vertex="1" parent="1">
          <mxGeometry x="457" y="527" width="22" height="22" as="geometry" />
        </mxCell>
      </root>
    </mxGraphModel>
  </diagram>
</mxfile>
